<?xml version="1.0" encoding="UTF-8" standalone="no"?>
<!DOCTYPE svg PUBLIC "-//W3C//DTD SVG 1.1//EN"
 "http://www.w3.org/Graphics/SVG/1.1/DTD/svg11.dtd">
<!-- Generated by graphviz version 2.49.3 (20211023.0002)
 -->
<!-- Pages: 1 -->
<svg width="350pt" height="404pt"
 viewBox="0.00 0.00 350.00 404.00" xmlns="http://www.w3.org/2000/svg" xmlns:xlink="http://www.w3.org/1999/xlink">
<g id="graph0" class="graph" transform="scale(1 1) rotate(0) translate(4 400)">
<polygon fill="white" stroke="transparent" points="-4,4 -4,-400 346,-400 346,4 -4,4"/>
<!-- T0 -->
<g id="node1" class="node">
<title>T0</title>
<ellipse fill="none" stroke="black" cx="243" cy="-378" rx="27" ry="18"/>
<text text-anchor="middle" x="243" y="-374.3" font-family="Times New Roman,serif" font-size="14.00">E</text>
</g>
<!-- T1 -->
<g id="node2" class="node">
<title>T1</title>
<ellipse fill="none" stroke="black" cx="207" cy="-306" rx="27" ry="18"/>
<text text-anchor="middle" x="207" y="-302.3" font-family="Times New Roman,serif" font-size="14.00">T</text>
</g>
<!-- T0&#45;&#45;T1 -->
<g id="edge1" class="edge">
<title>T0&#45;&#45;T1</title>
<path fill="none" stroke="black" d="M234.65,-360.76C228.83,-349.46 221.11,-334.44 215.3,-323.15"/>
</g>
<!-- T13 -->
<g id="node14" class="node">
<title>T13</title>
<ellipse fill="none" stroke="black" cx="279" cy="-306" rx="27" ry="18"/>
<text text-anchor="middle" x="279" y="-302.3" font-family="Times New Roman,serif" font-size="14.00">E&#39;</text>
</g>
<!-- T0&#45;&#45;T13 -->
<g id="edge13" class="edge">
<title>T0&#45;&#45;T13</title>
<path fill="none" stroke="black" d="M251.35,-360.76C257.17,-349.46 264.89,-334.44 270.7,-323.15"/>
</g>
<!-- T2 -->
<g id="node3" class="node">
<title>T2</title>
<ellipse fill="none" stroke="black" cx="99" cy="-234" rx="27" ry="18"/>
<text text-anchor="middle" x="99" y="-230.3" font-family="Times New Roman,serif" font-size="14.00">F</text>
</g>
<!-- T1&#45;&#45;T2 -->
<g id="edge2" class="edge">
<title>T1&#45;&#45;T2</title>
<path fill="none" stroke="black" d="M188.19,-292.81C168.37,-279.96 137.34,-259.85 117.6,-247.05"/>
</g>
<!-- T6 -->
<g id="node7" class="node">
<title>T6</title>
<ellipse fill="none" stroke="black" cx="207" cy="-234" rx="27" ry="18"/>
<text text-anchor="middle" x="207" y="-230.3" font-family="Times New Roman,serif" font-size="14.00">T&#39;</text>
</g>
<!-- T1&#45;&#45;T6 -->
<g id="edge6" class="edge">
<title>T1&#45;&#45;T6</title>
<path fill="none" stroke="black" d="M207,-287.7C207,-276.85 207,-262.92 207,-252.1"/>
</g>
<!-- T3 -->
<g id="node4" class="node">
<title>T3</title>
<ellipse fill="none" stroke="black" cx="27" cy="-162" rx="27" ry="18"/>
<text text-anchor="middle" x="27" y="-158.3" font-family="Times New Roman,serif" font-size="14.00">not</text>
</g>
<!-- T2&#45;&#45;T3 -->
<g id="edge3" class="edge">
<title>T2&#45;&#45;T3</title>
<path fill="none" stroke="black" d="M84.43,-218.83C72.02,-206.77 54.27,-189.51 41.8,-177.38"/>
</g>
<!-- T4 -->
<g id="node5" class="node">
<title>T4</title>
<ellipse fill="none" stroke="black" cx="99" cy="-162" rx="27" ry="18"/>
<text text-anchor="middle" x="99" y="-158.3" font-family="Times New Roman,serif" font-size="14.00">P</text>
</g>
<!-- T2&#45;&#45;T4 -->
<g id="edge4" class="edge">
<title>T2&#45;&#45;T4</title>
<path fill="none" stroke="black" d="M99,-215.7C99,-204.85 99,-190.92 99,-180.1"/>
</g>
<!-- T5 -->
<g id="node6" class="node">
<title>T5</title>
<ellipse fill="none" stroke="black" cx="99" cy="-90" rx="27" ry="18"/>
<text text-anchor="middle" x="99" y="-86.3" font-family="Times New Roman,serif" font-size="14.00">a</text>
</g>
<!-- T4&#45;&#45;T5 -->
<g id="edge5" class="edge">
<title>T4&#45;&#45;T5</title>
<path fill="none" stroke="black" d="M99,-143.7C99,-132.85 99,-118.92 99,-108.1"/>
</g>
<!-- T7 -->
<g id="node8" class="node">
<title>T7</title>
<ellipse fill="none" stroke="black" cx="171" cy="-162" rx="27" ry="18"/>
<text text-anchor="middle" x="171" y="-158.3" font-family="Times New Roman,serif" font-size="14.00">and</text>
</g>
<!-- T6&#45;&#45;T7 -->
<g id="edge7" class="edge">
<title>T6&#45;&#45;T7</title>
<path fill="none" stroke="black" d="M198.65,-216.76C192.83,-205.46 185.11,-190.44 179.3,-179.15"/>
</g>
<!-- T8 -->
<g id="node9" class="node">
<title>T8</title>
<ellipse fill="none" stroke="black" cx="243" cy="-162" rx="27" ry="18"/>
<text text-anchor="middle" x="243" y="-158.3" font-family="Times New Roman,serif" font-size="14.00">F</text>
</g>
<!-- T6&#45;&#45;T8 -->
<g id="edge8" class="edge">
<title>T6&#45;&#45;T8</title>
<path fill="none" stroke="black" d="M215.35,-216.76C221.17,-205.46 228.89,-190.44 234.7,-179.15"/>
</g>
<!-- T11 -->
<g id="node12" class="node">
<title>T11</title>
<ellipse fill="none" stroke="black" cx="315" cy="-162" rx="27" ry="18"/>
<text text-anchor="middle" x="315" y="-158.3" font-family="Times New Roman,serif" font-size="14.00">T&#39;</text>
</g>
<!-- T6&#45;&#45;T11 -->
<g id="edge11" class="edge">
<title>T6&#45;&#45;T11</title>
<path fill="none" stroke="black" d="M225.81,-220.81C245.63,-207.96 276.66,-187.85 296.4,-175.05"/>
</g>
<!-- T9 -->
<g id="node10" class="node">
<title>T9</title>
<ellipse fill="none" stroke="black" cx="243" cy="-90" rx="27" ry="18"/>
<text text-anchor="middle" x="243" y="-86.3" font-family="Times New Roman,serif" font-size="14.00">P</text>
</g>
<!-- T8&#45;&#45;T9 -->
<g id="edge9" class="edge">
<title>T8&#45;&#45;T9</title>
<path fill="none" stroke="black" d="M243,-143.7C243,-132.85 243,-118.92 243,-108.1"/>
</g>
<!-- T10 -->
<g id="node11" class="node">
<title>T10</title>
<ellipse fill="none" stroke="black" cx="243" cy="-18" rx="27" ry="18"/>
<text text-anchor="middle" x="243" y="-14.3" font-family="Times New Roman,serif" font-size="14.00">b</text>
</g>
<!-- T9&#45;&#45;T10 -->
<g id="edge10" class="edge">
<title>T9&#45;&#45;T10</title>
<path fill="none" stroke="black" d="M243,-71.7C243,-60.85 243,-46.92 243,-36.1"/>
</g>
<!-- T12 -->
<g id="node13" class="node">
<title>T12</title>
<ellipse fill="none" stroke="black" cx="315" cy="-90" rx="27" ry="18"/>
<text text-anchor="middle" x="315" y="-86.3" font-family="Times New Roman,serif" font-size="14.00">eps</text>
</g>
<!-- T11&#45;&#45;T12 -->
<g id="edge12" class="edge">
<title>T11&#45;&#45;T12</title>
<path fill="none" stroke="black" d="M315,-143.7C315,-132.85 315,-118.92 315,-108.1"/>
</g>
<!-- T14 -->
<g id="node15" class="node">
<title>T14</title>
<ellipse fill="none" stroke="black" cx="279" cy="-234" rx="27" ry="18"/>
<text text-anchor="middle" x="279" y="-230.3" font-family="Times New Roman,serif" font-size="14.00">eps</text>
</g>
<!-- T13&#45;&#45;T14 -->
<g id="edge14" class="edge">
<title>T13&#45;&#45;T14</title>
<path fill="none" stroke="black" d="M279,-287.7C279,-276.85 279,-262.92 279,-252.1"/>
</g>
</g>
</svg>
