<?xml version="1.0" encoding="UTF-8" standalone="no"?>
<!DOCTYPE svg PUBLIC "-//W3C//DTD SVG 1.1//EN"
 "http://www.w3.org/Graphics/SVG/1.1/DTD/svg11.dtd">
<!-- Generated by graphviz version 2.49.3 (20211023.0002)
 -->
<!-- Pages: 1 -->
<svg width="566pt" height="476pt"
 viewBox="0.00 0.00 566.00 476.00" xmlns="http://www.w3.org/2000/svg" xmlns:xlink="http://www.w3.org/1999/xlink">
<g id="graph0" class="graph" transform="scale(1 1) rotate(0) translate(4 472)">
<polygon fill="white" stroke="transparent" points="-4,4 -4,-472 562,-472 562,4 -4,4"/>
<!-- T0 -->
<g id="node1" class="node">
<title>T0</title>
<ellipse fill="none" stroke="black" cx="207" cy="-450" rx="27" ry="18"/>
<text text-anchor="middle" x="207" y="-446.3" font-family="Times New Roman,serif" font-size="14.00">E</text>
</g>
<!-- T1 -->
<g id="node2" class="node">
<title>T1</title>
<ellipse fill="none" stroke="black" cx="171" cy="-378" rx="27" ry="18"/>
<text text-anchor="middle" x="171" y="-374.3" font-family="Times New Roman,serif" font-size="14.00">T</text>
</g>
<!-- T0&#45;&#45;T1 -->
<g id="edge1" class="edge">
<title>T0&#45;&#45;T1</title>
<path fill="none" stroke="black" d="M198.65,-432.76C192.83,-421.46 185.11,-406.44 179.3,-395.15"/>
</g>
<!-- T12 -->
<g id="node13" class="node">
<title>T12</title>
<ellipse fill="none" stroke="black" cx="297" cy="-378" rx="27" ry="18"/>
<text text-anchor="middle" x="297" y="-374.3" font-family="Times New Roman,serif" font-size="14.00">E&#39;</text>
</g>
<!-- T0&#45;&#45;T12 -->
<g id="edge12" class="edge">
<title>T0&#45;&#45;T12</title>
<path fill="none" stroke="black" d="M223.93,-435.83C240.02,-423.32 264.08,-404.6 280.15,-392.11"/>
</g>
<!-- T2 -->
<g id="node3" class="node">
<title>T2</title>
<ellipse fill="none" stroke="black" cx="63" cy="-306" rx="27" ry="18"/>
<text text-anchor="middle" x="63" y="-302.3" font-family="Times New Roman,serif" font-size="14.00">F</text>
</g>
<!-- T1&#45;&#45;T2 -->
<g id="edge2" class="edge">
<title>T1&#45;&#45;T2</title>
<path fill="none" stroke="black" d="M152.19,-364.81C132.37,-351.96 101.34,-331.85 81.6,-319.05"/>
</g>
<!-- T5 -->
<g id="node6" class="node">
<title>T5</title>
<ellipse fill="none" stroke="black" cx="171" cy="-306" rx="27" ry="18"/>
<text text-anchor="middle" x="171" y="-302.3" font-family="Times New Roman,serif" font-size="14.00">T&#39;</text>
</g>
<!-- T1&#45;&#45;T5 -->
<g id="edge5" class="edge">
<title>T1&#45;&#45;T5</title>
<path fill="none" stroke="black" d="M171,-359.7C171,-348.85 171,-334.92 171,-324.1"/>
</g>
<!-- T3 -->
<g id="node4" class="node">
<title>T3</title>
<ellipse fill="none" stroke="black" cx="27" cy="-234" rx="27" ry="18"/>
<text text-anchor="middle" x="27" y="-230.3" font-family="Times New Roman,serif" font-size="14.00">P</text>
</g>
<!-- T2&#45;&#45;T3 -->
<g id="edge3" class="edge">
<title>T2&#45;&#45;T3</title>
<path fill="none" stroke="black" d="M54.65,-288.76C48.83,-277.46 41.11,-262.44 35.3,-251.15"/>
</g>
<!-- T4 -->
<g id="node5" class="node">
<title>T4</title>
<ellipse fill="none" stroke="black" cx="27" cy="-162" rx="27" ry="18"/>
<text text-anchor="middle" x="27" y="-158.3" font-family="Times New Roman,serif" font-size="14.00">a</text>
</g>
<!-- T3&#45;&#45;T4 -->
<g id="edge4" class="edge">
<title>T3&#45;&#45;T4</title>
<path fill="none" stroke="black" d="M27,-215.7C27,-204.85 27,-190.92 27,-180.1"/>
</g>
<!-- T6 -->
<g id="node7" class="node">
<title>T6</title>
<ellipse fill="none" stroke="black" cx="99" cy="-234" rx="27" ry="18"/>
<text text-anchor="middle" x="99" y="-230.3" font-family="Times New Roman,serif" font-size="14.00">and</text>
</g>
<!-- T5&#45;&#45;T6 -->
<g id="edge6" class="edge">
<title>T5&#45;&#45;T6</title>
<path fill="none" stroke="black" d="M156.43,-290.83C144.02,-278.77 126.27,-261.51 113.8,-249.38"/>
</g>
<!-- T7 -->
<g id="node8" class="node">
<title>T7</title>
<ellipse fill="none" stroke="black" cx="171" cy="-234" rx="27" ry="18"/>
<text text-anchor="middle" x="171" y="-230.3" font-family="Times New Roman,serif" font-size="14.00">F</text>
</g>
<!-- T5&#45;&#45;T7 -->
<g id="edge7" class="edge">
<title>T5&#45;&#45;T7</title>
<path fill="none" stroke="black" d="M171,-287.7C171,-276.85 171,-262.92 171,-252.1"/>
</g>
<!-- T10 -->
<g id="node11" class="node">
<title>T10</title>
<ellipse fill="none" stroke="black" cx="243" cy="-234" rx="27" ry="18"/>
<text text-anchor="middle" x="243" y="-230.3" font-family="Times New Roman,serif" font-size="14.00">T&#39;</text>
</g>
<!-- T5&#45;&#45;T10 -->
<g id="edge10" class="edge">
<title>T5&#45;&#45;T10</title>
<path fill="none" stroke="black" d="M185.57,-290.83C197.98,-278.77 215.73,-261.51 228.2,-249.38"/>
</g>
<!-- T8 -->
<g id="node9" class="node">
<title>T8</title>
<ellipse fill="none" stroke="black" cx="171" cy="-162" rx="27" ry="18"/>
<text text-anchor="middle" x="171" y="-158.3" font-family="Times New Roman,serif" font-size="14.00">P</text>
</g>
<!-- T7&#45;&#45;T8 -->
<g id="edge8" class="edge">
<title>T7&#45;&#45;T8</title>
<path fill="none" stroke="black" d="M171,-215.7C171,-204.85 171,-190.92 171,-180.1"/>
</g>
<!-- T9 -->
<g id="node10" class="node">
<title>T9</title>
<ellipse fill="none" stroke="black" cx="171" cy="-90" rx="27" ry="18"/>
<text text-anchor="middle" x="171" y="-86.3" font-family="Times New Roman,serif" font-size="14.00">b</text>
</g>
<!-- T8&#45;&#45;T9 -->
<g id="edge9" class="edge">
<title>T8&#45;&#45;T9</title>
<path fill="none" stroke="black" d="M171,-143.7C171,-132.85 171,-118.92 171,-108.1"/>
</g>
<!-- T11 -->
<g id="node12" class="node">
<title>T11</title>
<ellipse fill="none" stroke="black" cx="243" cy="-162" rx="27" ry="18"/>
<text text-anchor="middle" x="243" y="-158.3" font-family="Times New Roman,serif" font-size="14.00">eps</text>
</g>
<!-- T10&#45;&#45;T11 -->
<g id="edge11" class="edge">
<title>T10&#45;&#45;T11</title>
<path fill="none" stroke="black" d="M243,-215.7C243,-204.85 243,-190.92 243,-180.1"/>
</g>
<!-- T13 -->
<g id="node14" class="node">
<title>T13</title>
<ellipse fill="none" stroke="black" cx="261" cy="-306" rx="27" ry="18"/>
<text text-anchor="middle" x="261" y="-302.3" font-family="Times New Roman,serif" font-size="14.00">or</text>
</g>
<!-- T12&#45;&#45;T13 -->
<g id="edge13" class="edge">
<title>T12&#45;&#45;T13</title>
<path fill="none" stroke="black" d="M288.65,-360.76C282.83,-349.46 275.11,-334.44 269.3,-323.15"/>
</g>
<!-- T14 -->
<g id="node15" class="node">
<title>T14</title>
<ellipse fill="none" stroke="black" cx="333" cy="-306" rx="27" ry="18"/>
<text text-anchor="middle" x="333" y="-302.3" font-family="Times New Roman,serif" font-size="14.00">T</text>
</g>
<!-- T12&#45;&#45;T14 -->
<g id="edge14" class="edge">
<title>T12&#45;&#45;T14</title>
<path fill="none" stroke="black" d="M305.35,-360.76C311.17,-349.46 318.89,-334.44 324.7,-323.15"/>
</g>
<!-- T26 -->
<g id="node27" class="node">
<title>T26</title>
<ellipse fill="none" stroke="black" cx="441" cy="-306" rx="27" ry="18"/>
<text text-anchor="middle" x="441" y="-302.3" font-family="Times New Roman,serif" font-size="14.00">E&#39;</text>
</g>
<!-- T12&#45;&#45;T26 -->
<g id="edge26" class="edge">
<title>T12&#45;&#45;T26</title>
<path fill="none" stroke="black" d="M318.25,-366.67C345.47,-353.44 392.4,-330.63 419.67,-317.37"/>
</g>
<!-- T15 -->
<g id="node16" class="node">
<title>T15</title>
<ellipse fill="none" stroke="black" cx="315" cy="-234" rx="27" ry="18"/>
<text text-anchor="middle" x="315" y="-230.3" font-family="Times New Roman,serif" font-size="14.00">F</text>
</g>
<!-- T14&#45;&#45;T15 -->
<g id="edge15" class="edge">
<title>T14&#45;&#45;T15</title>
<path fill="none" stroke="black" d="M328.64,-288.05C325.81,-277.05 322.14,-262.76 319.32,-251.79"/>
</g>
<!-- T18 -->
<g id="node19" class="node">
<title>T18</title>
<ellipse fill="none" stroke="black" cx="387" cy="-234" rx="27" ry="18"/>
<text text-anchor="middle" x="387" y="-230.3" font-family="Times New Roman,serif" font-size="14.00">T&#39;</text>
</g>
<!-- T14&#45;&#45;T18 -->
<g id="edge18" class="edge">
<title>T14&#45;&#45;T18</title>
<path fill="none" stroke="black" d="M344.98,-289.46C353.93,-277.86 366.11,-262.08 375.05,-250.49"/>
</g>
<!-- T16 -->
<g id="node17" class="node">
<title>T16</title>
<ellipse fill="none" stroke="black" cx="315" cy="-162" rx="27" ry="18"/>
<text text-anchor="middle" x="315" y="-158.3" font-family="Times New Roman,serif" font-size="14.00">P</text>
</g>
<!-- T15&#45;&#45;T16 -->
<g id="edge16" class="edge">
<title>T15&#45;&#45;T16</title>
<path fill="none" stroke="black" d="M315,-215.7C315,-204.85 315,-190.92 315,-180.1"/>
</g>
<!-- T17 -->
<g id="node18" class="node">
<title>T17</title>
<ellipse fill="none" stroke="black" cx="315" cy="-90" rx="27" ry="18"/>
<text text-anchor="middle" x="315" y="-86.3" font-family="Times New Roman,serif" font-size="14.00">c</text>
</g>
<!-- T16&#45;&#45;T17 -->
<g id="edge17" class="edge">
<title>T16&#45;&#45;T17</title>
<path fill="none" stroke="black" d="M315,-143.7C315,-132.85 315,-118.92 315,-108.1"/>
</g>
<!-- T19 -->
<g id="node20" class="node">
<title>T19</title>
<ellipse fill="none" stroke="black" cx="387" cy="-162" rx="27" ry="18"/>
<text text-anchor="middle" x="387" y="-158.3" font-family="Times New Roman,serif" font-size="14.00">and</text>
</g>
<!-- T18&#45;&#45;T19 -->
<g id="edge19" class="edge">
<title>T18&#45;&#45;T19</title>
<path fill="none" stroke="black" d="M387,-215.7C387,-204.85 387,-190.92 387,-180.1"/>
</g>
<!-- T20 -->
<g id="node21" class="node">
<title>T20</title>
<ellipse fill="none" stroke="black" cx="459" cy="-162" rx="27" ry="18"/>
<text text-anchor="middle" x="459" y="-158.3" font-family="Times New Roman,serif" font-size="14.00">F</text>
</g>
<!-- T18&#45;&#45;T20 -->
<g id="edge20" class="edge">
<title>T18&#45;&#45;T20</title>
<path fill="none" stroke="black" d="M401.57,-218.83C413.98,-206.77 431.73,-189.51 444.2,-177.38"/>
</g>
<!-- T24 -->
<g id="node25" class="node">
<title>T24</title>
<ellipse fill="none" stroke="black" cx="531" cy="-162" rx="27" ry="18"/>
<text text-anchor="middle" x="531" y="-158.3" font-family="Times New Roman,serif" font-size="14.00">T&#39;</text>
</g>
<!-- T18&#45;&#45;T24 -->
<g id="edge24" class="edge">
<title>T18&#45;&#45;T24</title>
<path fill="none" stroke="black" d="M408.25,-222.67C435.47,-209.44 482.4,-186.63 509.67,-173.37"/>
</g>
<!-- T21 -->
<g id="node22" class="node">
<title>T21</title>
<ellipse fill="none" stroke="black" cx="387" cy="-90" rx="27" ry="18"/>
<text text-anchor="middle" x="387" y="-86.3" font-family="Times New Roman,serif" font-size="14.00">not</text>
</g>
<!-- T20&#45;&#45;T21 -->
<g id="edge21" class="edge">
<title>T20&#45;&#45;T21</title>
<path fill="none" stroke="black" d="M444.43,-146.83C432.02,-134.77 414.27,-117.51 401.8,-105.38"/>
</g>
<!-- T22 -->
<g id="node23" class="node">
<title>T22</title>
<ellipse fill="none" stroke="black" cx="459" cy="-90" rx="27" ry="18"/>
<text text-anchor="middle" x="459" y="-86.3" font-family="Times New Roman,serif" font-size="14.00">P</text>
</g>
<!-- T20&#45;&#45;T22 -->
<g id="edge22" class="edge">
<title>T20&#45;&#45;T22</title>
<path fill="none" stroke="black" d="M459,-143.7C459,-132.85 459,-118.92 459,-108.1"/>
</g>
<!-- T23 -->
<g id="node24" class="node">
<title>T23</title>
<ellipse fill="none" stroke="black" cx="459" cy="-18" rx="27" ry="18"/>
<text text-anchor="middle" x="459" y="-14.3" font-family="Times New Roman,serif" font-size="14.00">t</text>
</g>
<!-- T22&#45;&#45;T23 -->
<g id="edge23" class="edge">
<title>T22&#45;&#45;T23</title>
<path fill="none" stroke="black" d="M459,-71.7C459,-60.85 459,-46.92 459,-36.1"/>
</g>
<!-- T25 -->
<g id="node26" class="node">
<title>T25</title>
<ellipse fill="none" stroke="black" cx="531" cy="-90" rx="27" ry="18"/>
<text text-anchor="middle" x="531" y="-86.3" font-family="Times New Roman,serif" font-size="14.00">eps</text>
</g>
<!-- T24&#45;&#45;T25 -->
<g id="edge25" class="edge">
<title>T24&#45;&#45;T25</title>
<path fill="none" stroke="black" d="M531,-143.7C531,-132.85 531,-118.92 531,-108.1"/>
</g>
<!-- T27 -->
<g id="node28" class="node">
<title>T27</title>
<ellipse fill="none" stroke="black" cx="459" cy="-234" rx="27" ry="18"/>
<text text-anchor="middle" x="459" y="-230.3" font-family="Times New Roman,serif" font-size="14.00">eps</text>
</g>
<!-- T26&#45;&#45;T27 -->
<g id="edge27" class="edge">
<title>T26&#45;&#45;T27</title>
<path fill="none" stroke="black" d="M445.36,-288.05C448.19,-277.05 451.86,-262.76 454.68,-251.79"/>
</g>
</g>
</svg>
