<?xml version="1.0" encoding="UTF-8" standalone="no"?>
<!DOCTYPE svg PUBLIC "-//W3C//DTD SVG 1.1//EN"
 "http://www.w3.org/Graphics/SVG/1.1/DTD/svg11.dtd">
<!-- Generated by graphviz version 2.49.3 (20211023.0002)
 -->
<!-- Pages: 1 -->
<svg width="422pt" height="764pt"
 viewBox="0.00 0.00 422.00 764.00" xmlns="http://www.w3.org/2000/svg" xmlns:xlink="http://www.w3.org/1999/xlink">
<g id="graph0" class="graph" transform="scale(1 1) rotate(0) translate(4 760)">
<polygon fill="white" stroke="transparent" points="-4,4 -4,-760 418,-760 418,4 -4,4"/>
<!-- T0 -->
<g id="node1" class="node">
<title>T0</title>
<ellipse fill="none" stroke="black" cx="171" cy="-738" rx="27" ry="18"/>
<text text-anchor="middle" x="171" y="-734.3" font-family="Times New Roman,serif" font-size="14.00">E</text>
</g>
<!-- T1 -->
<g id="node2" class="node">
<title>T1</title>
<ellipse fill="none" stroke="black" cx="135" cy="-666" rx="27" ry="18"/>
<text text-anchor="middle" x="135" y="-662.3" font-family="Times New Roman,serif" font-size="14.00">T</text>
</g>
<!-- T0&#45;&#45;T1 -->
<g id="edge1" class="edge">
<title>T0&#45;&#45;T1</title>
<path fill="none" stroke="black" d="M162.65,-720.76C156.83,-709.46 149.11,-694.44 143.3,-683.15"/>
</g>
<!-- T36 -->
<g id="node37" class="node">
<title>T36</title>
<ellipse fill="none" stroke="black" cx="207" cy="-666" rx="27" ry="18"/>
<text text-anchor="middle" x="207" y="-662.3" font-family="Times New Roman,serif" font-size="14.00">E&#39;</text>
</g>
<!-- T0&#45;&#45;T36 -->
<g id="edge36" class="edge">
<title>T0&#45;&#45;T36</title>
<path fill="none" stroke="black" d="M179.35,-720.76C185.17,-709.46 192.89,-694.44 198.7,-683.15"/>
</g>
<!-- T2 -->
<g id="node3" class="node">
<title>T2</title>
<ellipse fill="none" stroke="black" cx="27" cy="-594" rx="27" ry="18"/>
<text text-anchor="middle" x="27" y="-590.3" font-family="Times New Roman,serif" font-size="14.00">F</text>
</g>
<!-- T1&#45;&#45;T2 -->
<g id="edge2" class="edge">
<title>T1&#45;&#45;T2</title>
<path fill="none" stroke="black" d="M116.19,-652.81C96.37,-639.96 65.34,-619.85 45.6,-607.05"/>
</g>
<!-- T5 -->
<g id="node6" class="node">
<title>T5</title>
<ellipse fill="none" stroke="black" cx="135" cy="-594" rx="27" ry="18"/>
<text text-anchor="middle" x="135" y="-590.3" font-family="Times New Roman,serif" font-size="14.00">T&#39;</text>
</g>
<!-- T1&#45;&#45;T5 -->
<g id="edge5" class="edge">
<title>T1&#45;&#45;T5</title>
<path fill="none" stroke="black" d="M135,-647.7C135,-636.85 135,-622.92 135,-612.1"/>
</g>
<!-- T3 -->
<g id="node4" class="node">
<title>T3</title>
<ellipse fill="none" stroke="black" cx="27" cy="-522" rx="27" ry="18"/>
<text text-anchor="middle" x="27" y="-518.3" font-family="Times New Roman,serif" font-size="14.00">P</text>
</g>
<!-- T2&#45;&#45;T3 -->
<g id="edge3" class="edge">
<title>T2&#45;&#45;T3</title>
<path fill="none" stroke="black" d="M27,-575.7C27,-564.85 27,-550.92 27,-540.1"/>
</g>
<!-- T4 -->
<g id="node5" class="node">
<title>T4</title>
<ellipse fill="none" stroke="black" cx="27" cy="-450" rx="27" ry="18"/>
<text text-anchor="middle" x="27" y="-446.3" font-family="Times New Roman,serif" font-size="14.00">a</text>
</g>
<!-- T3&#45;&#45;T4 -->
<g id="edge4" class="edge">
<title>T3&#45;&#45;T4</title>
<path fill="none" stroke="black" d="M27,-503.7C27,-492.85 27,-478.92 27,-468.1"/>
</g>
<!-- T6 -->
<g id="node7" class="node">
<title>T6</title>
<ellipse fill="none" stroke="black" cx="99" cy="-522" rx="27" ry="18"/>
<text text-anchor="middle" x="99" y="-518.3" font-family="Times New Roman,serif" font-size="14.00">and</text>
</g>
<!-- T5&#45;&#45;T6 -->
<g id="edge6" class="edge">
<title>T5&#45;&#45;T6</title>
<path fill="none" stroke="black" d="M126.65,-576.76C120.83,-565.46 113.11,-550.44 107.3,-539.15"/>
</g>
<!-- T7 -->
<g id="node8" class="node">
<title>T7</title>
<ellipse fill="none" stroke="black" cx="171" cy="-522" rx="27" ry="18"/>
<text text-anchor="middle" x="171" y="-518.3" font-family="Times New Roman,serif" font-size="14.00">F</text>
</g>
<!-- T5&#45;&#45;T7 -->
<g id="edge7" class="edge">
<title>T5&#45;&#45;T7</title>
<path fill="none" stroke="black" d="M143.35,-576.76C149.17,-565.46 156.89,-550.44 162.7,-539.15"/>
</g>
<!-- T28 -->
<g id="node29" class="node">
<title>T28</title>
<ellipse fill="none" stroke="black" cx="261" cy="-522" rx="27" ry="18"/>
<text text-anchor="middle" x="261" y="-518.3" font-family="Times New Roman,serif" font-size="14.00">T&#39;</text>
</g>
<!-- T5&#45;&#45;T28 -->
<g id="edge28" class="edge">
<title>T5&#45;&#45;T28</title>
<path fill="none" stroke="black" d="M155.24,-581.75C178.76,-568.69 217.31,-547.27 240.81,-534.22"/>
</g>
<!-- T8 -->
<g id="node9" class="node">
<title>T8</title>
<ellipse fill="none" stroke="black" cx="135" cy="-450" rx="27" ry="18"/>
<text text-anchor="middle" x="135" y="-446.3" font-family="Times New Roman,serif" font-size="14.00">P</text>
</g>
<!-- T7&#45;&#45;T8 -->
<g id="edge8" class="edge">
<title>T7&#45;&#45;T8</title>
<path fill="none" stroke="black" d="M162.65,-504.76C156.83,-493.46 149.11,-478.44 143.3,-467.15"/>
</g>
<!-- T9 -->
<g id="node10" class="node">
<title>T9</title>
<ellipse fill="none" stroke="black" cx="27" cy="-378" rx="27" ry="18"/>
<text text-anchor="middle" x="27" y="-374.3" font-family="Times New Roman,serif" font-size="14.00">(</text>
</g>
<!-- T8&#45;&#45;T9 -->
<g id="edge9" class="edge">
<title>T8&#45;&#45;T9</title>
<path fill="none" stroke="black" d="M116.19,-436.81C96.37,-423.96 65.34,-403.85 45.6,-391.05"/>
</g>
<!-- T10 -->
<g id="node11" class="node">
<title>T10</title>
<ellipse fill="none" stroke="black" cx="99" cy="-378" rx="27" ry="18"/>
<text text-anchor="middle" x="99" y="-374.3" font-family="Times New Roman,serif" font-size="14.00">E</text>
</g>
<!-- T8&#45;&#45;T10 -->
<g id="edge10" class="edge">
<title>T8&#45;&#45;T10</title>
<path fill="none" stroke="black" d="M126.65,-432.76C120.83,-421.46 113.11,-406.44 107.3,-395.15"/>
</g>
<!-- T27 -->
<g id="node28" class="node">
<title>T27</title>
<ellipse fill="none" stroke="black" cx="171" cy="-378" rx="27" ry="18"/>
<text text-anchor="middle" x="171" y="-374.3" font-family="Times New Roman,serif" font-size="14.00">)</text>
</g>
<!-- T8&#45;&#45;T27 -->
<g id="edge27" class="edge">
<title>T8&#45;&#45;T27</title>
<path fill="none" stroke="black" d="M143.35,-432.76C149.17,-421.46 156.89,-406.44 162.7,-395.15"/>
</g>
<!-- T11 -->
<g id="node12" class="node">
<title>T11</title>
<ellipse fill="none" stroke="black" cx="99" cy="-306" rx="27" ry="18"/>
<text text-anchor="middle" x="99" y="-302.3" font-family="Times New Roman,serif" font-size="14.00">T</text>
</g>
<!-- T10&#45;&#45;T11 -->
<g id="edge11" class="edge">
<title>T10&#45;&#45;T11</title>
<path fill="none" stroke="black" d="M99,-359.7C99,-348.85 99,-334.92 99,-324.1"/>
</g>
<!-- T17 -->
<g id="node18" class="node">
<title>T17</title>
<ellipse fill="none" stroke="black" cx="207" cy="-306" rx="27" ry="18"/>
<text text-anchor="middle" x="207" y="-302.3" font-family="Times New Roman,serif" font-size="14.00">E&#39;</text>
</g>
<!-- T10&#45;&#45;T17 -->
<g id="edge17" class="edge">
<title>T10&#45;&#45;T17</title>
<path fill="none" stroke="black" d="M117.81,-364.81C137.63,-351.96 168.66,-331.85 188.4,-319.05"/>
</g>
<!-- T12 -->
<g id="node13" class="node">
<title>T12</title>
<ellipse fill="none" stroke="black" cx="27" cy="-234" rx="27" ry="18"/>
<text text-anchor="middle" x="27" y="-230.3" font-family="Times New Roman,serif" font-size="14.00">F</text>
</g>
<!-- T11&#45;&#45;T12 -->
<g id="edge12" class="edge">
<title>T11&#45;&#45;T12</title>
<path fill="none" stroke="black" d="M84.43,-290.83C72.02,-278.77 54.27,-261.51 41.8,-249.38"/>
</g>
<!-- T15 -->
<g id="node16" class="node">
<title>T15</title>
<ellipse fill="none" stroke="black" cx="99" cy="-234" rx="27" ry="18"/>
<text text-anchor="middle" x="99" y="-230.3" font-family="Times New Roman,serif" font-size="14.00">T&#39;</text>
</g>
<!-- T11&#45;&#45;T15 -->
<g id="edge15" class="edge">
<title>T11&#45;&#45;T15</title>
<path fill="none" stroke="black" d="M99,-287.7C99,-276.85 99,-262.92 99,-252.1"/>
</g>
<!-- T13 -->
<g id="node14" class="node">
<title>T13</title>
<ellipse fill="none" stroke="black" cx="27" cy="-162" rx="27" ry="18"/>
<text text-anchor="middle" x="27" y="-158.3" font-family="Times New Roman,serif" font-size="14.00">P</text>
</g>
<!-- T12&#45;&#45;T13 -->
<g id="edge13" class="edge">
<title>T12&#45;&#45;T13</title>
<path fill="none" stroke="black" d="M27,-215.7C27,-204.85 27,-190.92 27,-180.1"/>
</g>
<!-- T14 -->
<g id="node15" class="node">
<title>T14</title>
<ellipse fill="none" stroke="black" cx="27" cy="-90" rx="27" ry="18"/>
<text text-anchor="middle" x="27" y="-86.3" font-family="Times New Roman,serif" font-size="14.00">b</text>
</g>
<!-- T13&#45;&#45;T14 -->
<g id="edge14" class="edge">
<title>T13&#45;&#45;T14</title>
<path fill="none" stroke="black" d="M27,-143.7C27,-132.85 27,-118.92 27,-108.1"/>
</g>
<!-- T16 -->
<g id="node17" class="node">
<title>T16</title>
<ellipse fill="none" stroke="black" cx="99" cy="-162" rx="27" ry="18"/>
<text text-anchor="middle" x="99" y="-158.3" font-family="Times New Roman,serif" font-size="14.00">eps</text>
</g>
<!-- T15&#45;&#45;T16 -->
<g id="edge16" class="edge">
<title>T15&#45;&#45;T16</title>
<path fill="none" stroke="black" d="M99,-215.7C99,-204.85 99,-190.92 99,-180.1"/>
</g>
<!-- T18 -->
<g id="node19" class="node">
<title>T18</title>
<ellipse fill="none" stroke="black" cx="171" cy="-234" rx="27" ry="18"/>
<text text-anchor="middle" x="171" y="-230.3" font-family="Times New Roman,serif" font-size="14.00">or</text>
</g>
<!-- T17&#45;&#45;T18 -->
<g id="edge18" class="edge">
<title>T17&#45;&#45;T18</title>
<path fill="none" stroke="black" d="M198.65,-288.76C192.83,-277.46 185.11,-262.44 179.3,-251.15"/>
</g>
<!-- T19 -->
<g id="node20" class="node">
<title>T19</title>
<ellipse fill="none" stroke="black" cx="243" cy="-234" rx="27" ry="18"/>
<text text-anchor="middle" x="243" y="-230.3" font-family="Times New Roman,serif" font-size="14.00">T</text>
</g>
<!-- T17&#45;&#45;T19 -->
<g id="edge19" class="edge">
<title>T17&#45;&#45;T19</title>
<path fill="none" stroke="black" d="M215.35,-288.76C221.17,-277.46 228.89,-262.44 234.7,-251.15"/>
</g>
<!-- T25 -->
<g id="node26" class="node">
<title>T25</title>
<ellipse fill="none" stroke="black" cx="315" cy="-234" rx="27" ry="18"/>
<text text-anchor="middle" x="315" y="-230.3" font-family="Times New Roman,serif" font-size="14.00">E&#39;</text>
</g>
<!-- T17&#45;&#45;T25 -->
<g id="edge25" class="edge">
<title>T17&#45;&#45;T25</title>
<path fill="none" stroke="black" d="M225.81,-292.81C245.63,-279.96 276.66,-259.85 296.4,-247.05"/>
</g>
<!-- T20 -->
<g id="node21" class="node">
<title>T20</title>
<ellipse fill="none" stroke="black" cx="171" cy="-162" rx="27" ry="18"/>
<text text-anchor="middle" x="171" y="-158.3" font-family="Times New Roman,serif" font-size="14.00">F</text>
</g>
<!-- T19&#45;&#45;T20 -->
<g id="edge20" class="edge">
<title>T19&#45;&#45;T20</title>
<path fill="none" stroke="black" d="M228.43,-218.83C216.02,-206.77 198.27,-189.51 185.8,-177.38"/>
</g>
<!-- T23 -->
<g id="node24" class="node">
<title>T23</title>
<ellipse fill="none" stroke="black" cx="243" cy="-162" rx="27" ry="18"/>
<text text-anchor="middle" x="243" y="-158.3" font-family="Times New Roman,serif" font-size="14.00">T&#39;</text>
</g>
<!-- T19&#45;&#45;T23 -->
<g id="edge23" class="edge">
<title>T19&#45;&#45;T23</title>
<path fill="none" stroke="black" d="M243,-215.7C243,-204.85 243,-190.92 243,-180.1"/>
</g>
<!-- T21 -->
<g id="node22" class="node">
<title>T21</title>
<ellipse fill="none" stroke="black" cx="171" cy="-90" rx="27" ry="18"/>
<text text-anchor="middle" x="171" y="-86.3" font-family="Times New Roman,serif" font-size="14.00">P</text>
</g>
<!-- T20&#45;&#45;T21 -->
<g id="edge21" class="edge">
<title>T20&#45;&#45;T21</title>
<path fill="none" stroke="black" d="M171,-143.7C171,-132.85 171,-118.92 171,-108.1"/>
</g>
<!-- T22 -->
<g id="node23" class="node">
<title>T22</title>
<ellipse fill="none" stroke="black" cx="171" cy="-18" rx="27" ry="18"/>
<text text-anchor="middle" x="171" y="-14.3" font-family="Times New Roman,serif" font-size="14.00">c</text>
</g>
<!-- T21&#45;&#45;T22 -->
<g id="edge22" class="edge">
<title>T21&#45;&#45;T22</title>
<path fill="none" stroke="black" d="M171,-71.7C171,-60.85 171,-46.92 171,-36.1"/>
</g>
<!-- T24 -->
<g id="node25" class="node">
<title>T24</title>
<ellipse fill="none" stroke="black" cx="243" cy="-90" rx="27" ry="18"/>
<text text-anchor="middle" x="243" y="-86.3" font-family="Times New Roman,serif" font-size="14.00">eps</text>
</g>
<!-- T23&#45;&#45;T24 -->
<g id="edge24" class="edge">
<title>T23&#45;&#45;T24</title>
<path fill="none" stroke="black" d="M243,-143.7C243,-132.85 243,-118.92 243,-108.1"/>
</g>
<!-- T26 -->
<g id="node27" class="node">
<title>T26</title>
<ellipse fill="none" stroke="black" cx="315" cy="-162" rx="27" ry="18"/>
<text text-anchor="middle" x="315" y="-158.3" font-family="Times New Roman,serif" font-size="14.00">eps</text>
</g>
<!-- T25&#45;&#45;T26 -->
<g id="edge26" class="edge">
<title>T25&#45;&#45;T26</title>
<path fill="none" stroke="black" d="M315,-215.7C315,-204.85 315,-190.92 315,-180.1"/>
</g>
<!-- T29 -->
<g id="node30" class="node">
<title>T29</title>
<ellipse fill="none" stroke="black" cx="207" cy="-450" rx="27" ry="18"/>
<text text-anchor="middle" x="207" y="-446.3" font-family="Times New Roman,serif" font-size="14.00">and</text>
</g>
<!-- T28&#45;&#45;T29 -->
<g id="edge29" class="edge">
<title>T28&#45;&#45;T29</title>
<path fill="none" stroke="black" d="M249.02,-505.46C240.07,-493.86 227.89,-478.08 218.95,-466.49"/>
</g>
<!-- T30 -->
<g id="node31" class="node">
<title>T30</title>
<ellipse fill="none" stroke="black" cx="279" cy="-450" rx="27" ry="18"/>
<text text-anchor="middle" x="279" y="-446.3" font-family="Times New Roman,serif" font-size="14.00">F</text>
</g>
<!-- T28&#45;&#45;T30 -->
<g id="edge30" class="edge">
<title>T28&#45;&#45;T30</title>
<path fill="none" stroke="black" d="M265.36,-504.05C268.19,-493.05 271.86,-478.76 274.68,-467.79"/>
</g>
<!-- T34 -->
<g id="node35" class="node">
<title>T34</title>
<ellipse fill="none" stroke="black" cx="369" cy="-450" rx="27" ry="18"/>
<text text-anchor="middle" x="369" y="-446.3" font-family="Times New Roman,serif" font-size="14.00">T&#39;</text>
</g>
<!-- T28&#45;&#45;T34 -->
<g id="edge34" class="edge">
<title>T28&#45;&#45;T34</title>
<path fill="none" stroke="black" d="M279.81,-508.81C299.63,-495.96 330.66,-475.85 350.4,-463.05"/>
</g>
<!-- T31 -->
<g id="node32" class="node">
<title>T31</title>
<ellipse fill="none" stroke="black" cx="243" cy="-378" rx="27" ry="18"/>
<text text-anchor="middle" x="243" y="-374.3" font-family="Times New Roman,serif" font-size="14.00">not</text>
</g>
<!-- T30&#45;&#45;T31 -->
<g id="edge31" class="edge">
<title>T30&#45;&#45;T31</title>
<path fill="none" stroke="black" d="M270.65,-432.76C264.83,-421.46 257.11,-406.44 251.3,-395.15"/>
</g>
<!-- T32 -->
<g id="node33" class="node">
<title>T32</title>
<ellipse fill="none" stroke="black" cx="315" cy="-378" rx="27" ry="18"/>
<text text-anchor="middle" x="315" y="-374.3" font-family="Times New Roman,serif" font-size="14.00">P</text>
</g>
<!-- T30&#45;&#45;T32 -->
<g id="edge32" class="edge">
<title>T30&#45;&#45;T32</title>
<path fill="none" stroke="black" d="M287.35,-432.76C293.17,-421.46 300.89,-406.44 306.7,-395.15"/>
</g>
<!-- T33 -->
<g id="node34" class="node">
<title>T33</title>
<ellipse fill="none" stroke="black" cx="315" cy="-306" rx="27" ry="18"/>
<text text-anchor="middle" x="315" y="-302.3" font-family="Times New Roman,serif" font-size="14.00">t</text>
</g>
<!-- T32&#45;&#45;T33 -->
<g id="edge33" class="edge">
<title>T32&#45;&#45;T33</title>
<path fill="none" stroke="black" d="M315,-359.7C315,-348.85 315,-334.92 315,-324.1"/>
</g>
<!-- T35 -->
<g id="node36" class="node">
<title>T35</title>
<ellipse fill="none" stroke="black" cx="387" cy="-378" rx="27" ry="18"/>
<text text-anchor="middle" x="387" y="-374.3" font-family="Times New Roman,serif" font-size="14.00">eps</text>
</g>
<!-- T34&#45;&#45;T35 -->
<g id="edge35" class="edge">
<title>T34&#45;&#45;T35</title>
<path fill="none" stroke="black" d="M373.36,-432.05C376.19,-421.05 379.86,-406.76 382.68,-395.79"/>
</g>
<!-- T37 -->
<g id="node38" class="node">
<title>T37</title>
<ellipse fill="none" stroke="black" cx="207" cy="-594" rx="27" ry="18"/>
<text text-anchor="middle" x="207" y="-590.3" font-family="Times New Roman,serif" font-size="14.00">eps</text>
</g>
<!-- T36&#45;&#45;T37 -->
<g id="edge37" class="edge">
<title>T36&#45;&#45;T37</title>
<path fill="none" stroke="black" d="M207,-647.7C207,-636.85 207,-622.92 207,-612.1"/>
</g>
</g>
</svg>
